<svg width="15" height="15" viewBox="0 0 15 15" fill="none" xmlns="http://www.w3.org/2000/svg">
<g clip-path="url(#clip0_340_281)">
<path d="M14.0174 14.0247L10.0848 9.66728C10.8307 8.64696 11.2797 7.34981 11.2797 5.93752C11.2797 2.66359 8.87581 0 5.92109 0C2.96636 0 0.5625 2.66359 0.5625 5.93752C0.5625 9.21145 2.96639 11.875 5.92111 11.875C7.1957 11.875 8.36638 11.3775 9.28723 10.5511L13.2198 14.9085C13.3299 15.0305 13.5085 15.0305 13.6187 14.9085L14.0174 14.4666C14.1275 14.3446 14.1275 14.1467 14.0174 14.0247ZM5.92111 10.625C3.5883 10.625 1.69064 8.52236 1.69064 5.93752C1.69064 3.35268 3.5883 1.25001 5.92111 1.25001C8.25393 1.25001 10.1516 3.35268 10.1516 5.93752C10.1516 8.52236 8.25393 10.625 5.92111 10.625Z" fill="#727272"/>
</g>
<defs>
<clipPath id="clip0_340_281">
<rect width="13.5375" height="15" fill="white" transform="translate(0.5625)"/>
</clipPath>
</defs>
</svg>
